<svg width="96" height="96" viewBox="0 0 96 96" fill="none" xmlns="http://www.w3.org/2000/svg">
  <defs>
    <linearGradient id="brandGradient" x1="12" y1="12" x2="84" y2="84" gradientUnits="userSpaceOnUse">
      <stop stop-color="#0F172A"/>
      <stop offset="1" stop-color="#2563EB"/>
    </linearGradient>
  </defs>
  <rect x="4" y="4" width="88" height="88" rx="22" fill="url(#brandGradient)"/>
  <path d="M28 63.5V32.5C28 29.4624 30.4624 27 33.5 27H37.5C40.5376 27 43 29.4624 43 32.5V63.5H28Z" fill="white" fill-opacity="0.96"/>
  <path d="M43 63.5V32.5C43 29.4624 45.4624 27 48.5 27H52.5C55.5376 27 58 29.4624 58 32.5V48.5H62.5C65.5376 48.5 68 51.0066 68 54.0442V63.5H43Z" fill="white" fill-opacity="0.88"/>
  <path d="M58 48.5H68V63.5H58V48.5Z" fill="#93C5FD"/>
  <path d="M28 63.5H68V68.5C68 71.5376 65.5376 74 62.5 74H33.5C30.4624 74 28 71.5376 28 68.5V63.5Z" fill="#E0F2FE" fill-opacity="0.9"/>
  <text x="50" y="57" text-anchor="middle" font-size="18" font-weight="700" font-family="Segoe UI, Arial, sans-serif" fill="#081A2C">DSA</text>
</svg>
